<svg width="51" height="51" viewBox="0 0 51 51" fill="none" xmlns="http://www.w3.org/2000/svg">
<g filter="url(#filter0_i_12_549)">
<path fill-rule="evenodd" clip-rule="evenodd" d="M25.3233 50.1929C39.1304 50.1929 50.3233 39 50.3233 25.1929C50.3233 11.3858 39.1304 0.192932 25.3233 0.192932C11.5162 0.192932 0.323303 11.3858 0.323303 25.1929C0.323303 39 11.5162 50.1929 25.3233 50.1929ZM25.3233 42.693C34.9883 42.693 42.8233 34.8579 42.8233 25.193C42.8233 15.528 34.9883 7.69295 25.3233 7.69295C15.6583 7.69295 7.8233 15.528 7.8233 25.193C7.8233 34.8579 15.6583 42.693 25.3233 42.693Z" fill="#55CEE7"/>
</g>
<path d="M19.1032 31.1306L48.5313 1.08753C48.5313 1.08753 52.6349 14.165 42.1602 24.6111C31.6855 35.0573 19.1032 31.1306 19.1032 31.1306Z" fill="#007219"/>
<path d="M48.5125 1.12085L19.0843 31.1639C19.0843 31.1639 14.9808 18.0865 25.4554 7.64034C35.9301 -2.80585 48.5125 1.12085 48.5125 1.12085Z" fill="#00A925"/>
<defs>
<filter id="filter0_i_12_549" x="0.323303" y="0.192932" width="50" height="54" filterUnits="userSpaceOnUse" color-interpolation-filters="sRGB">
<feFlood flood-opacity="0" result="BackgroundImageFix"/>
<feBlend mode="normal" in="SourceGraphic" in2="BackgroundImageFix" result="shape"/>
<feColorMatrix in="SourceAlpha" type="matrix" values="0 0 0 0 0 0 0 0 0 0 0 0 0 0 0 0 0 0 127 0" result="hardAlpha"/>
<feOffset dy="4"/>
<feGaussianBlur stdDeviation="2"/>
<feComposite in2="hardAlpha" operator="arithmetic" k2="-1" k3="1"/>
<feColorMatrix type="matrix" values="0 0 0 0 0 0 0 0 0 0 0 0 0 0 0 0 0 0 0.25 0"/>
<feBlend mode="normal" in2="shape" result="effect1_innerShadow_12_549"/>
</filter>
</defs>
</svg>
